<mxfile host="app.diagrams.net" modified="2023-09-30T11:21:43.527Z" agent="Mozilla/5.0 (Macintosh; Intel Mac OS X 10_15_7) AppleWebKit/537.36 (KHTML, like Gecko) Chrome/117.0.0.0 Safari/537.36   " etag="80Qft872td6CNiyJFjE1" version="22.0.0" type="github">
  <diagram name="Page-1" id="822b0af5-4adb-64df-f703-e8dfc1f81529">
    <mxGraphModel dx="1939" dy="1045" grid="1" gridSize="10" guides="1" tooltips="1" connect="1" arrows="1" fold="1" page="1" pageScale="1" pageWidth="1100" pageHeight="850" background="none" math="0" shadow="0">
      <root>
        <mxCell id="0" />
        <mxCell id="1" parent="0" />
        <mxCell id="7d933b09d9755ecc-9" value="" style="verticalLabelPosition=bottom;aspect=fixed;html=1;verticalAlign=top;strokeColor=none;shape=mxgraph.citrix.tower_server;rounded=0;shadow=0;comic=0;fontFamily=Verdana;" parent="1" vertex="1">
          <mxGeometry x="150" y="150" width="65" height="85" as="geometry" />
        </mxCell>
        <mxCell id="7d933b09d9755ecc-44" value="TCP &amp;amp; HTTP" style="edgeStyle=none;rounded=0;html=1;labelBackgroundColor=none;startFill=0;endArrow=block;endFill=1;strokeWidth=1;fontFamily=Verdana;fontSize=12;" parent="1" source="Tjz0SAe66KBHWP_uon1U-1" target="7d933b09d9755ecc-9" edge="1">
          <mxGeometry x="-0.0951" y="-20" relative="1" as="geometry">
            <mxPoint as="offset" />
            <mxPoint x="610" y="180" as="sourcePoint" />
            <Array as="points">
              <mxPoint x="400" y="170" />
            </Array>
          </mxGeometry>
        </mxCell>
        <mxCell id="Tjz0SAe66KBHWP_uon1U-1" value="" style="image;html=1;image=img/lib/clip_art/networking/Cloud_128x128.png" vertex="1" parent="1">
          <mxGeometry x="570" y="140" width="80" height="80" as="geometry" />
        </mxCell>
      </root>
    </mxGraphModel>
  </diagram>
</mxfile>
